<svg width="473" height="463" viewBox="0 0 473 463" fill="none" xmlns="http://www.w3.org/2000/svg">
<path d="M136.41 0C140.965 0.357 144.538 1.55 148.762 3.2L151.195 4.12C153.801 5.106 156.401 6.112 159 7.117L164.397 9.183C168.004 10.563 171.608 11.9497 175.209 13.343C179.092 14.8403 182.984 16.3123 186.886 17.759C188.837 18.485 190.787 19.2163 192.734 19.953C195.046 20.8263 197.362 21.6887 199.683 22.54C208.091 25.773 214.033 29.972 219.313 37.306C220.751 36.996 222.188 36.6833 223.625 36.368L226.051 35.841C228.458 35.307 228.458 35.307 231.313 34.306C237.36 33.662 242.368 34.688 248.051 36.746C250.658 37.391 251.855 37.371 254.313 36.306C256.097 34.449 257.587 32.461 259.141 30.411C264.572 25.147 272.844 22.825 279.813 20.189L282.825 19.039C285.986 17.8323 289.149 16.6297 292.313 15.431L298.59 13.035C302.639 11.4923 306.69 9.95533 310.743 8.424C314.217 7.1112 317.681 5.76948 321.133 4.399L323.331 3.538C325.215 2.798 327.094 2.048 328.973 1.298C332.626 0.213 335.523 -0.0369998 339.313 0.306C341.66 2.873 342.291 4.401 342.375 7.868C340.32 12.584 335.344 14.396 330.787 16.21C329.033 16.87 327.276 17.5233 325.517 18.17C324.568 18.524 323.621 18.88 322.644 19.245C319.619 20.3746 316.592 21.4986 313.563 22.617L304.64 25.947C302.69 26.6757 300.739 27.4023 298.787 28.127C293.312 30.1553 287.861 32.2471 282.435 34.402C280.886 35.0162 279.339 35.6352 277.794 36.259C274.813 37.442 272.552 38.305 269.313 38.305L268.438 40.118C267.313 42.306 267.313 42.306 265.313 45.306L266.773 46.88C272.592 53.304 274.619 57.21 274.45 65.922C274.304 68.459 273.968 70.85 273.313 73.306L276.5 74.993C283.596 79.09 288.722 85.533 291.313 93.306C291.441 95.98 291.357 98.627 291.313 101.306C302.108 99.373 314.42 97.054 321.186 87.678C325.272 81.388 328.436 74.622 331.601 67.836C335.892 58.986 340.259 50.764 348.813 45.493L350.949 44.088C352.514 43.0597 354.085 42.041 355.663 41.032C358.664 39.076 361.603 37.042 364.543 34.997L371 30.555L374.114 28.385L377.074 26.385L379.698 24.585C382.818 23.058 384.879 22.952 388.313 23.305C390.75 24.868 390.75 24.868 392.313 27.305C392.413 30.582 392.413 30.582 391.313 34.305C388.933 36.773 386.154 38.497 383.263 40.317L380.807 41.939C378.215 43.6398 375.613 45.3245 373 46.993C370.406 48.683 367.815 50.3783 365.227 52.079C363.617 53.1338 362.002 54.1812 360.382 55.221C354.542 59.003 350.578 62.401 347.212 68.603L345.498 71.734L343.688 75.056L341.751 78.461C337.691 85.591 337.691 85.591 334.403 93.091C332.053 98.971 328.253 103.766 322.357 106.316C320.906 106.845 319.447 107.352 317.981 107.837L315.634 108.675C309.375 110.87 303.022 112.81 296.62 114.545C292.206 115.768 292.206 115.768 289.313 119.306C289.169 121.866 289.127 124.43 289.188 126.993L289.215 129.12C289.239 130.85 289.275 132.578 289.313 134.306L291.969 135.13C299.559 137.8 306.397 141.87 312.313 147.306C315.813 145.968 319.088 144.436 322.383 142.654L325.323 141.064L328.438 139.368L331.65 137.631C336.788 134.838 341.885 131.999 346.907 129.001L349.492 127.462C351.084 126.506 352.669 125.538 354.247 124.558C361.423 120.244 361.423 120.244 366.313 121.306C371.04 124.997 374.093 130.166 377.375 135.118C381.537 141.306 385.785 147.381 390.313 153.306C395.257 159.788 399.873 166.453 404.436 173.209C408.59 179.33 412.941 185.274 417.444 191.144L418.852 192.986L420.077 194.571C421.313 196.306 421.313 196.306 422.385 198.919C424.985 202.137 426.935 202.132 430.928 202.584L433.618 202.818L436.394 203.118C439.324 203.432 442.255 203.714 445.188 203.993C448.113 204.289 451.038 204.592 453.961 204.901C455.78 205.092 457.599 205.273 459.42 205.445C469.466 206.459 469.466 206.459 472.313 209.306C472.878 215.14 472.878 215.14 472.313 217.306C470.038 219.306 468.22 220.272 465.163 220.386C462.489 220.204 459.85 219.911 457.192 219.576L454.23 219.241C452.166 219.004 450.102 218.759 448.04 218.506C444.892 218.124 441.743 217.757 438.592 217.406L432.567 216.701L429.725 216.371C418.092 214.93 418.092 214.93 414.435 211.591L412.75 209.368L410.7 206.661C407.157 201.741 403.772 196.71 400.378 191.688C396.791 186.396 393.06 181.205 389.188 176.118C384.728 170.258 380.482 164.288 376.341 158.2C371.775 151.489 367.057 144.892 362.313 138.306C358.033 138.908 354.917 140.429 351.165 142.544L349.42 143.52C347.59 144.547 345.763 145.579 343.938 146.618L340.282 148.671C335.529 151.341 330.787 154.025 326.086 156.786C323.313 158.306 323.313 158.306 321.313 158.306C322.393 168.563 324.141 174.203 331.629 181.583C343.173 193.296 351.553 210.02 357.313 225.306C365.156 224.795 372.847 223.647 380.586 222.322C391.843 220.446 391.843 220.446 395.418 222.537C397.736 224.701 397.943 225.777 398.311 228.89L398.68 231.774L399.032 234.97L399.454 238.399C399.841 241.57 400.212 244.743 400.578 247.917C400.975 251.317 401.396 254.713 401.814 258.11C403.648 273.056 405.397 288.012 407.154 302.967C408.195 311.812 409.249 320.655 410.314 329.497C411.107 336.108 411.882 342.72 412.639 349.334C413.121 353.507 413.622 357.678 414.127 361.849C414.36 363.809 414.587 365.77 414.806 367.732C415.107 370.435 415.436 373.134 415.771 375.834L416.018 378.228C416.87 384.707 419.66 387.263 424.638 391.095L427 392.716L429.618 394.526L432.313 396.368C446.957 406.439 446.957 406.439 448.313 409.743C448.313 413.271 447.743 414.728 445.313 417.306C439.703 417.964 436.761 417.564 432.138 414.005L430.375 412.556C429.083 411.54 427.789 410.526 426.493 409.516C425.819 408.988 425.146 408.459 424.453 407.914C422.235 406.248 419.963 404.727 417.633 403.22L415.293 401.68C413.799 400.702 412.292 399.744 410.773 398.807C407.004 396.291 405.513 395.002 404.219 390.509C402.982 384.035 402.228 377.485 401.434 370.945L400.901 366.645C400.422 362.778 399.947 358.911 399.475 355.044C398.978 350.988 398.479 346.932 397.978 342.877C397.14 336.075 396.305 329.272 395.472 322.469C394.509 314.605 393.542 306.742 392.572 298.879C391.637 291.304 390.705 283.729 389.774 276.154C389.379 272.934 388.982 269.713 388.585 266.492C388.119 262.705 387.655 258.917 387.192 255.128L386.679 250.958C386.446 249.062 386.214 247.166 385.983 245.269L385.589 242.053C385.313 239.306 385.313 239.306 385.313 235.306L383.417 235.673C380.591 236.219 377.765 236.763 374.938 237.306L371.954 237.884L369.102 238.431L366.468 238.939C364.313 239.306 364.313 239.306 362.313 239.306L362.74 241.1C373.66 287.515 370.901 333.743 345.59 375.272C332.919 395.445 316.33 413.952 297.313 428.306L295.397 429.765C279.444 441.85 262.423 451.805 244.313 460.306L241.93 461.583C234.03 463.765 227.245 460.246 220.438 456.493L217.692 455.013C203.45 447.228 189.879 438.591 177.313 428.306L175.65 426.951C168.483 421.086 161.752 414.971 155.313 408.306L152.883 405.88C121.889 374.839 103.829 334.794 103.125 290.806C103.181 273.195 106.243 256.394 110.313 239.306L108.525 239.046C105.85 238.656 103.175 238.263 100.5 237.868L97.686 237.46L94.981 237.06L92.49 236.695C90.313 236.306 90.313 236.306 87.313 235.306L87.007 238.788C84.827 262.908 81.716 286.934 78.758 310.968C77.6741 319.772 76.6068 328.578 75.556 337.386C74.81 343.626 74.05 349.864 73.276 356.101C72.816 359.811 72.363 363.521 71.929 367.233C71.446 371.353 70.929 375.47 70.409 379.587L69.992 383.287C68.789 392.459 68.789 392.459 65.804 395.505L63.313 397.306L61.359 398.848L59.493 400.138L57.387 401.608L55.188 403.118C49.013 407.356 49.013 407.356 43.036 411.865C35.512 417.785 35.512 417.785 30.813 418.056C27.313 417.306 27.313 417.306 25.25 415.681C23.96 412.41 24.342 410.676 25.313 407.306C27.692 404.919 27.692 404.919 30.875 402.618L32.589 401.358C38.026 397.401 43.599 393.615 49.194 389.885C52.818 387.635 52.818 387.635 55.313 384.306C55.629 382.299 55.896 380.283 56.141 378.266L56.621 374.362L57.139 370.053L57.691 365.535C58.0883 362.286 58.4833 359.037 58.876 355.788C59.4993 350.648 60.126 345.509 60.756 340.37C62.3173 327.6 63.874 314.83 65.426 302.059C66.63 292.143 67.8393 282.228 69.054 272.314C69.6793 267.208 70.3 262.102 70.916 256.996C71.3027 253.813 71.6917 250.63 72.083 247.447C72.263 245.975 72.4413 244.502 72.618 243.029C72.86 241.013 73.1067 238.997 73.358 236.981L73.773 233.567C75.305 224.314 75.305 224.314 78.313 221.306C86.957 221.036 95.706 222.743 104.183 224.289C107.938 224.966 111.493 225.48 115.313 225.306L116.493 222.404C122.789 207.277 130.497 191.698 142.481 180.232C149.103 173.706 150.185 167.221 151.313 158.306C146.225 155.39 141.132 152.481 136.036 149.579C132.507 147.57 128.994 145.533 125.496 143.47L123.309 142.194C121.963 141.409 120.623 140.614 119.289 139.81C116.902 138.43 114.942 137.334 112.153 137.208C109.297 138.912 107.741 141.468 105.938 144.181C105.052 145.467 104.164 146.752 103.274 148.036L101.832 150.132C99.149 153.972 96.352 157.729 93.563 161.493L89.953 166.38L88.127 168.85C85.7663 172.046 83.408 175.245 81.052 178.446L77.588 183.145C74.5253 187.296 71.4713 191.454 68.426 195.618L66.499 198.249C65.2777 199.915 64.0587 201.583 62.842 203.253L61.176 205.525L59.716 207.523C57.111 210.833 55.589 212.597 51.306 213.15C50.496 213.26 49.686 213.37 48.851 213.485L46.188 213.806L43.42 214.166C41.44 214.42 39.4597 214.669 37.479 214.913C34.187 215.322 30.899 215.758 27.609 216.197L20.938 217.056L17.754 217.48C12.366 218.144 7.619 218.593 2.313 217.306C0.313 215.306 0.313 215.306 0 211.868C0.313 208.306 0.313 208.306 1.58 206.636C3.601 205.085 4.843 204.783 7.356 204.462L9.824 204.132L12.5 203.806L15.292 203.402C20.395 202.686 25.395 202.235 30.547 202.118C42.627 201.818 42.627 201.818 52.45 195.556C55.584 191.579 58.18 187.31 60.724 182.939C63.296 178.677 66.311 174.77 69.313 170.806C70.481 169.226 71.6463 167.644 72.809 166.06C75.1526 162.878 77.4992 159.698 79.849 156.52L83.375 151.743L85.114 149.393C88.0838 145.374 91.015 141.326 93.907 137.251L95.672 134.769C96.7755 133.214 97.8728 131.655 98.964 130.091C104.271 122.621 104.271 122.621 108.313 120.306C112.551 120.684 115.705 121.784 119.411 123.826L122.31 125.409L125.375 127.119L128.556 128.857C133.886 131.777 139.163 134.794 144.383 137.907L147.254 139.607C149.054 140.679 150.844 141.768 152.624 142.874C157.079 145.725 157.079 145.725 162.129 145.802L164.313 144.306L166.453 142.939L168.563 141.431C172.958 138.417 177.392 136.337 182.313 134.306L183.313 119.306L166.79 112.568L163.196 111.103L159.638 109.617C156.43 108.287 156.43 108.287 153.48 107.511C146.303 105.394 143.825 101.381 140.256 94.971L139.29 93.145C138.312 91.3163 137.306 89.5027 136.272 87.705C133.849 83.463 131.454 79.2053 129.087 74.932C128.071 73.1053 127.048 71.282 126.02 69.462L124.222 66.237C120.237 60.117 115.042 56.624 108.985 52.813C107.365 51.769 105.745 50.7237 104.125 49.677C101.589 48.0438 99.0459 46.4225 96.495 44.813C94.0229 43.2459 91.5612 41.6626 89.11 40.063L86.787 38.63C82.987 36.128 81.547 35.109 80.228 30.598C80.313 27.305 80.313 27.305 81.875 24.868C85.102 22.8 86.499 22.819 90.313 23.306C93.345 24.797 96.053 26.698 98.817 28.634L101.244 30.286C103.797 32.03 106.336 33.793 108.875 35.556L114.015 39.067C118.468 42.117 122.919 45.169 127.313 48.305L130.103 50.29C132.79 52.74 134.286 55.225 136.055 58.4L137.06 60.18C138.11 62.0512 139.153 63.9265 140.188 65.806C140.876 67.036 141.565 68.265 142.254 69.493L143.28 71.324C143.964 72.5423 144.652 73.7587 145.343 74.973C146.97 77.84 148.493 80.686 149.908 83.668C154.328 92.528 159.603 95.272 168.75 98.556L172.413 99.982C175.366 101.125 178.333 102.233 181.313 103.306L181.236 101.306C181.042 92.669 183.094 87.008 188.813 80.431L191.313 78.306L193.938 76.056C196.313 74.306 196.313 74.306 199.313 73.306L198.813 71.431C197.533 63.431 197.728 57.161 202.313 50.306C203.9 48.202 205.547 46.268 207.313 44.306L205.313 42.43C203.313 40.305 203.313 40.305 203.313 38.305L200.987 38.058C195.932 37.022 191.327 35.15 186.536 33.262L183.373 32.032C180.04 30.732 176.707 29.4273 173.375 28.118L166.756 25.538C162.513 23.8836 158.273 22.2209 154.036 20.55C150.538 19.1692 147.029 17.8174 143.508 16.495L141.385 15.685C139.594 15.0057 137.801 14.3323 136.006 13.665C133.116 12.205 131.853 11.132 130.313 8.305C130.609 3.365 131.035 0.531 136.41 0ZM213.313 58.306L211.313 60.306C211.39 64.408 211.85 66.691 214.335 69.991C218.29 73.065 221.025 73.064 225.903 73.041L228.394 73.068C230.128 73.0807 231.862 73.0807 233.596 73.068C236.24 73.056 238.878 73.108 241.522 73.165C243.212 73.169 244.901 73.169 246.59 73.165L248.968 73.226C252.363 73.156 254.486 72.975 257.177 70.796C259.789 67.883 261.221 66.206 261.625 62.243C258.172 54.513 250.983 52.085 243.645 49.133C232.709 44.963 221.583 50.903 213.313 58.306ZM197.875 90.556C193.525 96.344 192.857 101.914 193.774 108.943C195.051 114.541 198.617 118.248 203.313 121.306C209.539 123.62 215.463 123.612 222.055 123.606L225.458 123.62C227.827 123.625 230.195 123.626 232.563 123.622C236.169 123.619 239.773 123.642 243.379 123.667C245.688 123.669 247.997 123.67 250.305 123.669L253.545 123.697C260.448 123.655 267.722 123.389 273.192 118.693C277.32 114.358 279.272 109.919 279.34 103.853C278.938 96.963 277 92.92 272 88.056C265.327 83.71 258.284 83.999 250.57 84.006L247.168 83.992C244.8 83.9853 242.432 83.9847 240.063 83.99C236.457 83.992 232.853 83.97 229.247 83.944C226.938 83.9417 224.63 83.9414 222.321 83.943L219.081 83.915C211.097 83.964 203.625 84.519 197.875 90.556ZM196.313 132.305C198.646 142.416 206.984 149.771 215.313 155.305C227.09 162.165 227.09 162.165 240.313 163.305C248.593 160.765 255.53 156.61 262.313 151.305L264.5 149.653C269.805 145.383 273.353 140.438 276.313 134.305V132.305L273.74 132.797C270.264 133.312 266.997 133.432 263.485 133.434L261.502 133.44C259.355 133.443 257.209 133.442 255.063 133.438L250.558 133.441C247.418 133.442 244.278 133.44 241.138 133.435C237.123 133.431 233.108 133.432 229.093 133.439C225.994 133.442 222.896 133.442 219.797 133.439C218.317 133.439 216.837 133.44 215.357 133.441C213.285 133.442 211.213 133.44 209.141 133.434L205.576 133.432C202.406 133.309 199.426 132.9 196.313 132.305ZM167.372 158.961C164.565 162.156 162.564 165.302 162.028 169.578C162.808 176.948 165.922 181.454 171.548 186.184C195.69 203.984 229.308 206.156 258.124 202.531C275.037 199.967 294.526 194.391 306.313 181.305C309.125 177.445 310.672 174.007 310.313 169.18C308.813 161.71 303.363 156.523 297.313 152.305C293.064 150.091 288.735 148.145 284.313 146.305L282.915 148.211C273.409 160.685 258.289 172.718 242.313 175.305C225.71 177.097 212.756 169.098 199.938 159.367C195.838 156.003 192.678 152.292 189.59 147.992L188.313 146.305C180.966 146.305 172.443 154.365 167.372 158.961ZM153.313 187.305C139.773 201.074 127.2 223.36 123.313 242.305C123.357 244.5 123.357 244.5 124.313 246.305C144.91 260.952 185.913 258.149 210.072 258.808C212.245 258.868 214.419 258.931 216.592 258.998C285.105 263.302 285.105 263.302 349.313 245.305C346.149 227.269 336.736 209.888 326 195.242L324.475 193.129C322.886 190.976 322.886 190.976 320.313 188.305H316.313C314.937 189.937 313.603 191.604 312.313 193.305C286.286 214.623 250.569 217.445 218.269 215.082C196.987 212.932 174.043 206.555 158.313 191.305L156.676 189.071L155.313 187.305H153.313ZM119.313 258.305C116.635 276.731 116.635 276.731 116.313 295.305C122.933 298.612 129.375 300.479 136.625 301.867L139.877 302.503C203.154 314.337 293.917 319.731 355.313 296.305C356.976 294.642 356.485 292.721 356.5 290.43C356.423 279.714 355.195 268.852 353.313 258.305L350.438 259.258C315.578 270.401 277.69 270.844 241.395 270.696C237.161 270.682 232.927 270.686 228.693 270.706C192.133 270.832 154.295 269.902 119.313 258.305ZM118.313 310.305C118.785 320.057 121.354 329.055 124.313 338.305L125.023 340.603C127.851 349.501 127.851 349.501 133.985 356.27C137.411 357.7 140.68 358.538 144.313 359.305C145.71 359.653 147.105 360.005 148.5 360.36C204.557 373.902 273.314 372.305 329.313 359.305L331.587 358.832C335.702 357.947 339.002 356.942 342.313 354.305C344.879 350.115 346.413 345.975 347.753 341.268C348.279 339.426 348.877 337.604 349.481 335.785C352.246 327.37 354.467 319.2 354.313 310.305L351.079 311.075C315.139 319.463 278.259 320.843 241.479 320.696C237.174 320.679 232.87 320.689 228.566 320.706C210.365 320.768 192.283 320.325 174.133 318.906L171.698 318.717C153.708 317.285 135.798 314.893 118.313 310.305ZM143.313 372.305C144.763 376.753 147.213 379.899 150.25 383.367L151.72 385.071C153.243 386.823 154.774 388.567 156.313 390.305L157.776 391.964C160.891 395.47 164.07 398.917 167.313 402.305L169.36 404.505C183.975 418.908 217.45 415.515 236.75 415.492H239.418C276.259 416.692 276.259 416.692 307.647 401.3L310 398.93C310.8 398.129 311.598 397.327 312.42 396.502C319.583 389.212 326.816 381.582 331.313 372.305C326.318 372.814 321.367 373.428 316.407 374.207L313.145 374.717C310.985 375.057 308.826 375.404 306.668 375.757C284.948 379.112 263.121 379.658 241.187 379.621C238.285 379.616 235.383 379.623 232.482 379.641C216.415 379.741 200.499 379.401 184.492 377.922L182.45 377.735C170.935 376.654 159.577 374.905 148.241 372.625C146.145 372.223 146.145 372.223 143.313 372.305ZM198.313 426.305C201.575 429.683 204.963 432.13 209 434.492L210.963 435.646C213.074 436.876 215.193 438.091 217.313 439.305L219.562 440.613C221.802 441.903 224.052 443.175 226.313 444.43L228.413 445.65C233.117 448.207 235.979 448.855 241.313 447.305C244.771 445.819 248.068 444.097 251.375 442.305L254.159 440.823C261.805 436.701 269.135 432.191 276.313 427.305C272.833 426.179 269.98 426.384 266.36 426.735C257.67 427.434 249.015 427.455 240.301 427.435C237.581 427.432 234.861 427.434 232.141 427.442C220.855 427.443 209.573 427.064 198.313 426.305Z" fill="#45A7D0"/>
</svg>
