<svg width="474" height="382" viewBox="0 0 474 382" fill="none" xmlns="http://www.w3.org/2000/svg">
<path d="M157.309 0.964894C161.344 0.867131 165.38 0.769369 169.538 0.668644C194.18 0.516184 210.733 2.98169 232.26 16.3699C233.824 14.8057 235.388 13.2415 237 11.6299C272.037 12.3916 307.674 29.5992 331.93 54.7898C342.707 65.1409 349.986 67.4701 364.387 70.8799C393.072 78.6951 415.247 90.1336 431.34 115.91C432.932 127.464 432.932 127.464 433.117 139.61C434.408 159.598 434.408 159.598 447.337 175.16C451.443 177.506 455.549 179.853 459.78 182.27C466.819 186.963 466.819 186.963 474 191.75C474 198.007 474 204.264 474 210.71C463.051 209.146 452.101 207.582 440.82 205.97C442.384 207.534 443.948 209.098 445.56 210.71C455.04 220.19 455.04 220.19 455.04 239.15C444.671 240.927 444.671 240.927 431.34 239.15C410.589 219.814 404.636 206.47 402.9 177.53C393.515 177.53 384.13 177.53 374.46 177.53C380.499 205.077 387.576 225.227 406.455 246.556C418.379 260.986 424.44 269.642 423.341 288.624C416.598 320.712 398.145 350.594 373.867 372.462C360.24 381.35 360.24 381.35 341.28 381.35C343.635 360.625 349.923 351.918 364.684 337.505C380.842 319.944 390.886 305.806 394.438 281.958C392.92 267.603 383.98 261.781 373.219 253.074C353.882 231.52 341.28 191.817 341.28 163.31C336.587 163.31 331.895 163.31 327.06 163.31C327.842 169.273 328.624 175.237 329.43 181.381C335.169 236.249 335.169 236.249 331.8 258.11C320.154 268.836 314.359 272.33 298.62 272.33C298.354 276.537 298.354 276.537 298.083 280.829C295.441 312.581 289.848 329.369 265.736 351.429C245.33 366.838 234.344 373.302 208.56 371.87C208.56 361.205 208.56 361.205 213.3 348.17C222.478 342.47 231.679 338.389 241.703 334.376C253.646 327.893 258.606 321.984 265.44 310.25C268.289 297.415 268.289 297.415 269.587 283.884C273.439 259.406 273.439 259.406 286.77 247.741C298.62 243.89 298.62 243.89 308.1 243.89C306.536 218.863 304.972 193.836 303.36 168.05C282.974 177.942 282.974 177.942 275.624 196.786C274.23 200.562 272.837 204.338 271.402 208.229C270.021 212.176 268.64 216.123 267.217 220.19C264.413 227.999 261.587 235.801 258.737 243.594C257.518 247.058 256.298 250.523 255.041 254.092C251.22 262.85 251.22 262.85 241.74 272.33C236.559 273.601 231.377 274.872 226.039 276.181C206.137 282.59 199.059 290.582 184.86 305.51C157.301 321.258 137.018 325.082 105.465 324.766C99.917 324.723 94.3689 324.681 88.6528 324.637C84.4246 324.582 80.1963 324.527 75.84 324.47C75.84 318.213 75.84 311.956 75.84 305.51C80.9847 304.703 86.1295 303.897 91.4301 303.066C98.2815 301.909 105.132 300.749 111.982 299.585C115.361 299.066 118.74 298.546 122.222 298.011C145.416 293.968 161.247 287.21 180.12 272.33C182.369 269.006 184.617 265.682 186.934 262.257C194.34 253.37 194.34 253.37 210.634 250.407C228.011 245.739 228.011 245.739 233.889 232.781C238.606 220.786 242.811 208.842 246.48 196.49C243.84 198.323 241.201 200.156 238.481 202.045C184.154 239.119 142.494 254.53 75.84 248.63C44.7399 239.295 30.5756 216.699 15.2939 189.38C-1.25316 155.653 -7.63412 122.493 3.42537 85.4887C10.95 69.2514 17.505 60.1803 31.6987 48.9574C45.911 37.434 45.4372 29.2947 47.4 11.6299C59.9048 5.37747 69.3119 6.59922 83.2462 6.88989C91.8356 7.06861 100.432 7.11046 109.02 6.88989C119.538 -3.62781 143.195 1.04847 157.309 0.964894ZM132.72 25.8499C131.081 52.6209 134.803 68.8687 146.94 92.2099C159.78 98.6297 170.684 97.2581 184.86 96.9499C184.576 86.8737 184.155 76.8012 183.675 66.7324C183.455 61.1233 183.235 55.5141 183.008 49.7351C181.707 35.0188 181.707 35.0188 171.381 28.6643C158.235 25.0445 146.282 25.2334 132.72 25.8499ZM66.36 30.5899C66.7756 38.0996 67.2884 45.604 67.8412 53.1049C68.1162 57.2842 68.3911 61.4636 68.6744 65.7696C71.471 79.8592 75.1863 86.8162 85.32 96.9499C102.505 98.5321 102.505 98.5321 118.5 96.9499C118.088 87.6634 117.575 78.3813 117.019 69.1024C116.606 61.3486 116.606 61.3486 116.186 53.4382C115.385 49.0266 114.585 44.6151 113.76 40.0699C96.4866 28.5543 86.6831 29.823 66.36 30.5899ZM199.08 30.5899C197.738 56.5359 197.232 75.1807 213.3 96.9499C230.219 103.821 230.219 103.821 246.48 106.43C244.916 103.301 243.352 100.173 241.74 96.9499C241.378 89.2502 241.091 81.5469 240.851 73.8424C239.126 53.9497 238.755 51.1179 223.076 37.1074C209.771 29.9427 209.771 29.9427 199.08 30.5899ZM255.96 40.0699C253.38 69.2189 253.38 69.2189 266.032 94.5799C278.657 107.819 278.657 107.819 295.361 108.207C299.565 107.621 303.769 107.034 308.1 106.43C309.664 93.9163 311.228 81.4027 312.84 68.5099C294.07 59.1247 275.299 49.7395 255.96 40.0699ZM42.66 73.2499C30.5148 86.9132 26.2036 97.8838 23.7 115.91C36.2136 112.781 48.7272 109.653 61.62 106.43C56.9274 95.4805 52.2348 84.5311 47.4 73.2499C45.8358 73.2499 44.2716 73.2499 42.66 73.2499ZM331.8 92.2099C331.779 120.863 331.779 120.863 345.724 144.35C366.124 151.011 386.289 152.628 407.64 153.83C407.64 147.573 407.64 141.316 407.64 134.87C399.819 133.306 391.998 131.741 383.94 130.13C382.376 125.437 380.812 120.745 379.2 115.91C385.457 114.346 391.714 112.781 398.16 111.17C366.561 94.7499 366.561 94.7499 331.8 92.2099ZM75.84 125.39C77.0594 134.385 78.359 143.369 79.6912 152.349C80.4061 157.353 81.121 162.357 81.8576 167.513C85.4333 182.753 90.8124 193.082 99.54 205.97C118.791 185.293 142.2 149.932 142.2 120.65C134.695 120.521 127.19 120.43 119.685 120.354C115.506 120.299 111.326 120.244 107.02 120.187C95.8338 120.611 86.5287 122.218 75.84 125.39ZM180.12 120.65C183.993 149.6 183.993 149.6 199.08 173.086C208.246 178.201 208.246 178.201 218.04 177.53C226.649 168.316 226.649 168.316 235.222 156.792C238.216 152.943 241.21 149.094 244.295 145.128C252.104 135.623 252.104 135.623 251.22 125.39C227.757 123.826 204.294 122.261 180.12 120.65ZM284.4 125.39C275.572 136.807 275.572 136.807 270.18 149.09C285.822 147.526 301.464 145.961 317.58 144.35C314.452 138.093 311.323 131.836 308.1 125.39C296.852 123.409 296.852 123.409 284.4 125.39ZM23.7 139.61C32.0065 173.785 46.4088 195.363 71.1 220.19C74.2284 218.626 77.3568 217.062 80.58 215.45C79.2663 212.81 77.9526 210.171 76.5991 207.451C64.8756 182.752 58.8631 162.138 56.88 134.87C38.4196 133.871 38.4196 133.871 23.7 139.61ZM156.42 149.09C150.867 159.941 145.341 170.805 139.83 181.677C138.247 184.763 136.665 187.849 135.034 191.028C126.234 207.167 126.234 207.167 123.24 224.93C150.608 222.649 170.444 214.575 194.34 201.23C190.625 197.026 186.91 192.822 183.082 188.491C172.671 176.074 166.194 164.651 161.16 149.09C159.596 149.09 158.032 149.09 156.42 149.09Z" fill="#45a7d0"/>
</svg>
