<svg xmlns="http://www.w3.org/2000/svg" width="314" height="433" fill="none" viewBox="0 0 314 433">
  <path fill="#45a7d0" fill-rule="evenodd" d="M47.2109 88.457c3.3949-1.6974 6.202-1.698 8.9424-1.5009l1.1719.0918.9629.0791.8213.5087c1.5587.9676 2.8742 2.0534 3.8301 3.6524.8613 1.441 1.2513 3.0432 1.5839 4.4004l.0645.2617.0283.2666c.4861 4.5652-.0556 8.6382-.6982 12.6332l-.7002 4.707-.001.008-.001.01c-.3793 2.473-.7633 4.944-1.1474 7.413l.0009.001c-.3684 2.389-.7242 4.783-1.081 7.188l-.0039.025-.0049.027-.3477 2.148-.1425 1.01c-.646 4.789-.7214 8.941.9091 12.385 1.4117 1.478 2.2635 2.173 3.0752 2.597.8142.426 1.8994.738 4.1065.875 1.3411.04 2.6834.077 4.0263.109h.0196l2.207.063c2.3161.065 4.6328.124 6.9561.183h.0078c1.5766.043 3.1538.086 4.7304.13 3.4593.096 6.9189.186 10.3799.275.496-3.588 1.5502-10.794 2.5606-14.97l2.1612.763c36.774 12.88 65.353 15.832 102.46 2.725 3.106-1.089 6.114-1.985 9.379-2.488l3.056 12.991.616.011c4.41.074 8.822.127 13.234.163h.008c1.52.015 3.042.036 4.562.063 2.157.036 4.317.053 6.494.066h.024l3.733.045c1.756-.173 2.938-.396 3.971-.746.889-.301 1.795-.739 2.937-1.472.954-1.517 1.427-2.701 1.668-3.839.285-1.338.31-2.891.076-5.258l-.001-.011-.355-3.682c-.878-7.301-1.892-14.59-3.016-21.866l-.001-.006c-.313-2.038-.602-4.072-.884-6.09l-.579-3.873-.001-.291c-.007-2.0847.168-3.9617.864-5.8288.687-1.8421 1.768-3.3631 3.026-4.9043l.764-.9366 1.154-.3564c1.601-.4949 2.809-.8795 4.069-1.0596.947-.1353 1.893-.151 3.007-.1377l1.175.0196 1.327.0234 1.048.8105c2.097 1.6195 3.705 3.2981 4.827 5.4444 1.091 2.0883 1.558 4.3154 1.886 6.6875l.474 3.24.004.031.004.031.447 3.426.497 3.543v.005c.325 2.342.644 4.684.954 7.028l.274 2.013c.185 1.343.378 2.685.575 4.028l.3 2.015.002.016c1.52 10.384 2.763 21.431-4.383 31.911l-.065.095-.069.09c-5.148 6.694-11.146 10.401-19.19 12.439l-.32.081-.33.028c-5.777.481-11.456.393-17.011.262-1.492-.02-2.985-.037-4.477-.054h-.005c-3.335-.04-6.667-.103-9.995-.176 1.231 10.832 2.566 23.821 3.491 34.972l.112-.002 2.801-.058.013-.001h.011c13.53-.202 27.096.052 39.176 9.966l.574.479.128.109.119.119c3.402 3.421 5.791 7.542 7.933 10.961 4.501 7.183 6.474 10.296 8.904 12.85 2.325 2.442 5.119 4.426 11.353 8.732 2.363.268 4.694.427 7.087.484l.241.006.238.034c1.811.263 3.381.697 4.896 1.511 1.279.687 2.353 1.559 3.38 2.497l.437.406.655.613.329.834c.419 1.062.818 2.035 1.029 3.091.209 1.045.221 2.108.249 3.282l.023.996-.445.889c-1.174 2.349-2.458 4.748-4.749 7.039l-.965.965-1.352.174c-11.944 1.539-21.102-1.229-30.728-7.638l-.133-.088-.124-.097c-8.089-6.366-13.507-14.401-18.579-22.386-2.556-3.994-4.276-6.633-6.385-8.631-1.913-1.813-4.281-3.202-8.243-4.175-2.893-.291-5.812-.429-8.851-.557h-.013l-.013-.001-2.521-.122c-1.803-.087-3.609-.168-5.419-.246.102 15.791-1.049 40.425-2.568 61.08l.229.044 3.503.667.063.012.062.014c5.565 1.244 10.41 3.28 15.25 5.612l2.503 1.199.043.021c7.374 3.641 13.747 7.887 19.981 13.259l2.072 1.734.061.053.061.054c8.886 8.078 13.769 19.164 14.462 30.892l.006.121v.122c-.002 1.369-.017 2.738-.042 4.104l-.02 2.209v.019c-.066 4.89-.335 9.722-.678 14.533l.001.001c-.543 7.868-.634 15.769-.668 23.788v.002c-.007 1.453-.017 2.906-.031 4.36-.071 8.098.267 15.717 1.71 23.485l.013.068.009.067c.49 3.247.705 6.313.466 9.732l-.093 1.339-.881 1.012c-.972 1.115-1.766 2.048-2.736 2.823-.965.773-2.055 1.348-3.37 2.063l-.893.485H272c-1.735 0-3.518-.061-5.296-.581-1.877-.548-3.461-1.515-5.057-2.882l-.613-.525-.361-.723c-4.515-9.029-5.691-19.952-5.723-30.474-.031-10.468 1.102-21.361 1.556-29.902l.006-.114.012-.112c1.087-9.843 1.549-14.204 1.159-18.342-.381-4.035-1.58-7.935-4.325-16.594l-.934-1.397c-7.385-9.542-20.142-15.523-32.486-19.809-4.446 36.2-12.755 85.577-42.619 110.229-7.273 5.232-15.819 8.431-24.851 7.226-11.95-2.042-20.661-9.586-27.883-18.98-15.735-22.442-23.603-53.753-28.8789-80.446-1.3305-6.862-2.3293-12.984-3.0743-18.164-14.1909 5.33-28.3886 11.319-35.6367 23.25-1.7607 3.992-2.1124 7.434-2.123 12.254l.0019 1v.015l.0059 2.377c.0411 5.85.2934 11.695.6133 17.603l.0009.007c.7861 15.018 1.249 30.345-.3281 45.62l-.2099 2.148-.0049.045-.0049.046c-.6015 4.978-1.9427 8.95-4.5078 13.268l-.3936.663-.6113.469c-1.3635 1.045-2.7493 1.934-4.4756 2.383-1.6542.43-3.2751.357-4.8125.245l-.499-.037-.4746-.158c-1.4526-.485-2.8191-1.021-4.1035-1.913-1.3023-.904-2.2821-2.006-3.2442-3.261l-.7568-.989-.0625-1.243c-.0512-1.013-.0958-1.787-.0508-2.619.0434-.803.1684-1.631.3369-2.785l.3233-2.375.0019-.013.001-.012.4219-2.961c1.0581-7.671 1.1158-15.306 1.0859-23.359l-.001-.009-.0019-2.086c-.012-7.924-.1043-15.74-.6143-23.534-1.1798-18.125-2.043-34.716 11.0469-51.041l.0879-.109.0957-.104c11.6479-12.595 29.5691-21.765 46.0605-25.036l.3994-.08c-1.7501-20.098-1.7454-44.772-1.7334-61.052-2.6341.112-5.2692.233-7.9062.359l-.0147.001-.0136.001-2.4522.099c-5.7438.288-10.3834.948-14.4267 3.552-2.3286 2.659-4.2321 5.563-6.2237 8.845l-.0058.009c-7.0002 11.468-15.444 22.429-28.7071 28.721l-.0009-.001-2.5645 1.226-.2392.079c-3.8998 1.292-7.3077 1.451-10.8418 1.517l.0009.001-3.6601.121-.4043.013-.3994-.068c-1.3946-.238-2.92797-.456-4.30667-1.154-1.37037-.694-2.46325-1.799-3.5-2.792l-.40039-.384-.28125-.478c-.67373-1.148-1.414697-2.344-1.783206-3.707C.0588269 262.004.00794529 260.956 0 259.929v-1.696l.22168-.638c.632225-1.818 1.33507-3.438 2.58594-4.858 1.198-1.36 2.68031-2.272 4.15332-3.144l.72363-.429.83398-.101c2.59455-.314 2.79515-.328 5.48735-.34 6.5215-.489 10.6099-3.671 15.8964-9.183 3.9695-4.659 7.2117-9.888 10.5479-15.448l.0127-.02.0117-.02c4.27-6.93 9.6245-12.885 18.0723-16.056l2.375-.927.167-.065.1718-.05c6.9425-2.014 13.7182-2.05 20.2188-1.982l-.001.001 2.4863.012h.002c1.8486.011 3.696.027 5.5391.044l.1806.001c1.0997-11.095 2.758-24.3 4.1768-34.975l-1.4961.027h-.0088c-3.358.052-6.7141.088-10.0684.116l.001.001c-1.4319.015-2.8638.036-4.2949.062h-.002c-11.5297.204-22.0989-.056-32.0302-9.513l-.0733-.07-.0703-.074c-5.8763-6.197-8.7612-13.053-8.8398-21.674l-.001-.168.0117-.167c.1711-2.284.4323-4.514.7324-6.724l.2881-2.363.001-.006c.2142-1.735.436-3.468.6631-5.199.3764-2.926.7146-5.862 1.0527-8.824l.002-.008.0009-.01c.2439-2.051.4883-4.103.7344-6.153l.3301-2.897.0059-.047c.714-5.663 1.7649-10.7167 4.6611-16.198l.6006-1.1347zm68.9331 73.589c-.757 5.448-1.763 12.876-2.768 20.815-2.094 16.543-3.908 33.286-3.908 40.173 0 16.905.04 46.083 2 66.937 0 0 .579 6.71.926 9.665.694 5.915 1.9 14.516 3.928 24.975 5.268 27.168 11.931 52.874 25.189 71.999 5.41 6.944 9.77 9.778 14.054 10.642 2.048.18 5.015-.414 8.95-3.113 10.275-8.752 18.04-22.822 23.747-40.834 5.727-18.077 8.709-37.912 10.894-55.784 2.276-21.201 4.515-59.869 4.344-80.78l-.002-.269.005-.269c.096-5.513-.994-19.634-2.563-35.39-1.133-11.389-2.411-22.618-3.379-30.257-28.972 7.869-54.214 6.753-81.172-.254-.078.555-.161 1.137-.245 1.744" clip-rule="evenodd"/>
  <path fill="#45a7d0" fill-rule="evenodd" d="M77.8242 1.88184C92.1758-1.66923 107.661-.595091 120.408 8.57032l.606.44336.098.07324.095.08008c1.493 1.2622 2.967 2.5462 4.421 3.8506l2.221 1.9082.049.0439.05.045c10.007 9.1928 17.391 22.3036 21.818 34.6718l.234.6534v1.0839c4.457-.8953 8.356-.9083 12.31.0459l.028-.1992.05-.2031c1.055-4.3307 2.907-8.0548 4.67-11.5303l1.074-2.1318.008-.0156.007-.0147c3.058-5.9438 6.543-11.4398 10.648-16.7344l1.855-2.4843.078-.1036.084-.0976C189.936 7.25196 201.797 1.5893 215.383.120124l.125-.013672.126-.005859c19.449-.871338 37.508 7.576847 51.543 19.793907l.665.585.042.0371.041.0381c1.611 1.5119 3.216 3.0327 4.812 4.5625l2.038 1.8506.025.0224.023.0225c17.62 16.5406 32.863 45.5289 37.115 69.3174l.136.7637-.158.7587c-.422 2.019-.849 4.0715-1.911 5.8875-1.141 1.952-2.784 3.287-4.786 4.622l-.909.607-1.092.059c-1.511.083-2.785.167-4.064.005-1.392-.176-2.714-.636-4.419-1.204l-1.189-.396-.75-1.004c-2.248-3.009-3.339-6.381-4.246-9.1009-.115-.3429-.226-.6777-.339-1.0107-6.36-18.4718-14.499-36.3408-27.2-50.625l-.01-.0108-.01-.0117-2.293-2.6162c-10.294-11.0048-24.263-19.7614-38.857-20.3301-8.306.1676-15.717 3.9814-21.922 10.0508-4.346 5.049-7.453 10.9152-10.732 17.3301l-.004.0088-1.033 2.0068c-1.719 3.4877-2.945 6.5626-3.16 9.6885l-.186 2.708c.216.1949.428.3877.634.5801C200.82 81.3979 204.327 100.651 210 120.034l-.484.5c-10.461 10.386-38.735 13.5-52.516 13.5l-1.35-.007c-14.093-.155-39.259-2.766-52.984-13.461l-.666-.532c4.399-19.061 9.242-39.8856 27.106-55.9119l.03-2.9854c.001-.1431-.021-.3882-.093-1.0508-1.082-3.4792-2.525-6.665-4.289-10.0996l-.008-.0156-1.074-2.1142c-3.605-6.9502-7.716-12.6496-13.385-17.8829l-.037-.0341-.036-.0352-1.857-1.8018c-6.1-4.0387-12.8639-6.1614-19.5972-5.1367-21.4549 5.1076-36.3434 18.4779-48.3946 37.2315l-.0058.0078-.0049.0088-1.8233 2.8056c-7.2676 11.7991-12.2439 25.1159-16.6201 38.6555l-.0556.173-.0713.167c-.4146.971-.8952 2.173-1.6992 3.205-1.012 1.298-2.4396 2.189-3.8467 3.127l-.0205.015-1.041.694-1.25-.023c-1.6292-.029-2.78-.042-3.93168-.202-1.19245-.165-2.34325-.481-4.03028-.933l-1.2705-.34-.82032-1.028c-1.04529-1.309-2.14114-2.734-2.85449-4.436-.768039-1.834-.9885161-3.7029-.86035-5.8489l.026367-.4355.119141-.4199C7.61486 69.6768 19.2595 46.0261 38.0508 26.3301l1.8388-2.0625.0254-.0274C49.4682 13.9147 63.2726 5.4825 77.8242 1.88184M156.534 71.7588c-.484-.0233-1.52.0032-3.595.5293-.126.0567-.449.2066-.978.5107-.966.556-2.102 1.3264-3.288 2.2246-1.159.8771-2.175 1.7311-2.896 2.3623-.353.3095-.619.5504-.775.6944-.053.0491-.094.0861-.12.1103l-.001.002-.026.0234c-.009.0086-.01.0101-.003.0039l-.386.3711-.455.3887c-9.312 7.967-13.965 17.7117-17.563 29.9995 2.148.646 4.549 1.248 7.195 1.781 8.58 1.726 17.398 2.274 23.357 2.274 5.746 0 15.022-.691 23.667-2.507 1.57-.329 3.051-.683 4.434-1.054-3.682-12.2351-7.283-20.8564-16.029-29.058-1.702-1.596-4.731-3.8811-7.959-6.1084-1.367-.9433-2.607-1.7636-3.544-2.374-.478-.1309-.796-.1623-1.035-.1738" clip-rule="evenodd"/>
</svg>
