<svg width="499" height="385" viewBox="0 0 499 385" fill="none" xmlns="http://www.w3.org/2000/svg">
<path d="M484.147 238.071C471.085 163.299 298.883 29.3252 227.979 21.379C149.863 12.628 88.65 154.995 129.4 217.456C154.541 255.989 337.531 219.714 484.147 238.071Z" stroke="#45a7d0" stroke-width="28" stroke-linecap="round" stroke-linejoin="round"/>
<path d="M407.591 111.739C424.224 -63.7842 334.226 40.847 377.19 90.6096" stroke="#45a7d0" stroke-width="28" stroke-linecap="round" stroke-linejoin="round"/>
<path d="M358.281 89.5683C256.444 34.8681 247.194 124.768 365.444 146.64" stroke="#45a7d0" stroke-width="28" stroke-linecap="round" stroke-linejoin="round"/>
<path d="M414.926 185.362C415.297 184.366 415.667 183.369 416.044 182.375" stroke="#45a7d0" stroke-width="28" stroke-linecap="round" stroke-linejoin="round"/>
<path d="M132.493 220.514C119.772 208.011 100.69 196.736 83.8711 189.875C5.0409 157.725 -5.12116 263.155 43.4539 305.256C91.5174 346.916 231.545 294.651 239.76 370.013" stroke="#45a7d0" stroke-width="28" stroke-linecap="round" stroke-linejoin="round"/>
</svg>
