<svg width="455" height="455" viewBox="0 0 455 455" fill="none" xmlns="http://www.w3.org/2000/svg">
<path d="M162.171 222.256L48.691 179.837L13.0035 84.5039M155.754 239.421L36.7952 275.171L24.8994 346.671M155.754 251.337L84.3785 334.754L131.962 442.004M169.679 209.662L84.3785 108.337L112.929 13.0039M291.039 222.256L405.566 179.837L441.254 84.5039M298.504 239.421L417.462 275.171L429.358 346.671M298.504 251.337L369.879 334.754L322.295 442.004M284.581 209.662L369.879 108.337L341.329 13.0039M298.504 275.171C298.504 314.66 266.549 346.671 227.129 346.671C187.708 346.671 155.754 314.66 155.754 275.171C155.754 259.281 160.927 244.604 169.679 232.735C174.876 225.685 177.474 222.16 178.37 220.394C179.475 218.218 179.619 217.837 180.219 215.47C180.706 213.549 180.913 211.066 181.327 206.097L187.289 134.48C188.579 118.986 189.224 111.238 192.481 108.117C195.305 105.412 199.273 104.268 203.099 105.056C207.515 105.966 212.171 112.185 221.483 124.623L227.133 132.171L232.784 124.623C242.098 112.185 246.754 105.966 251.17 105.056C254.996 104.268 258.964 105.412 261.788 108.117C265.045 111.238 265.69 118.986 266.98 134.48L272.932 206.094C273.344 211.064 273.551 213.549 274.039 215.47C274.64 217.837 274.783 218.218 275.887 220.394C276.784 222.16 279.382 225.685 284.581 232.738C293.331 244.607 298.504 259.283 298.504 275.171Z" stroke="#45a7d0" stroke-width="26" stroke-linecap="round" stroke-linejoin="round"/>
</svg>
