<svg width="277" height="511" viewBox="0 0 277 511" fill="none" xmlns="http://www.w3.org/2000/svg">
<path d="M68.2215 2.00977C71.5023 3.02735 72.3936 4.69568 74.2215 7.56171C75.6615 11.0973 76.7934 14.7036 77.909 18.3497C78.2164 19.3128 78.5238 20.2759 78.8406 21.2682C81.3412 29.2288 82.3663 36.3754 82.3316 44.6892C82.3321 46.6377 82.3327 48.5862 82.3333 50.5348C82.3319 51.5618 82.3305 52.5889 82.329 53.6472C82.3254 59.1062 82.3513 64.5651 82.3718 70.024C82.3962 76.9615 82.4119 83.8986 82.3965 90.8361C82.3848 96.4519 82.4023 102.067 82.4389 107.683C82.4475 109.818 82.4455 111.953 82.4324 114.088C82.4155 117.08 82.4358 120.069 82.4644 123.06C82.4437 124.373 82.4437 124.373 82.4226 125.713C82.5447 132.325 84.7794 135.879 89.2215 140.716C89.9977 141.61 89.9977 141.61 90.7897 142.521C92.1529 144.087 93.5541 145.609 94.9715 147.127C95.4523 147.656 95.9331 148.185 96.4285 148.73C97.6492 150.045 98.9308 151.304 100.222 152.552H102.222C104.329 149.435 104.448 148.913 104.276 145.405C104.235 144.174 104.235 144.174 104.193 142.919C104.161 142.05 104.129 141.18 104.097 140.285C103.89 128.044 106.557 118.924 114.222 109.154C114.84 108.319 115.459 107.485 116.097 106.626C118.89 104.762 120.979 104.585 124.311 104.769C126.222 105.208 126.222 105.208 128.784 107.243C130.739 111.182 130.501 112.837 129.222 117.044C127.795 119.382 126.247 121.596 124.651 123.825C121.301 128.737 120.824 133.989 120.222 139.73C120.758 139.516 121.294 139.302 121.847 139.082C132.948 135.192 145.287 135.374 156.222 139.73C155.027 131.295 153.138 124.799 147.909 117.969C146.222 115.071 146.222 115.071 146.284 111.434C147.222 108.167 147.222 108.167 148.284 106.256C150.826 104.882 153.143 104.435 156.034 104.561C160.856 105.988 163.563 110.091 166.222 114.085C169.548 120.591 172.443 127.064 172.214 134.428C172.189 135.717 172.189 135.717 172.163 137.033C172.119 138.831 172.067 140.629 172.007 142.427C171.993 143.286 171.978 144.146 171.964 145.031C171.942 145.812 171.92 146.593 171.897 147.397C172.301 150.127 173.411 151.48 175.222 153.538C180.132 148.828 184.932 144.019 189.222 138.743C189.906 137.918 190.591 137.093 191.296 136.242C193.807 131.787 193.769 128.447 193.704 123.44C193.71 122.048 193.71 122.048 193.716 120.628C193.722 118.618 193.719 116.608 193.708 114.598C193.69 111.403 193.698 108.208 193.712 105.013C193.741 97.0696 193.728 89.1263 193.717 81.1828C193.708 74.4785 193.717 67.7746 193.746 61.0704C193.753 57.9476 193.736 54.8256 193.719 51.7028C193.721 36.5973 195 16.3116 204.628 3.7551C207.019 2.06734 209.422 2.16642 212.28 2.29102C214.222 2.63007 214.222 2.63007 216.722 4.17121C218.698 7.33854 218.682 9.88961 218.222 13.4797C217.509 16.0105 216.653 18.4657 215.772 20.9444C211.108 34.1185 210.262 46.0505 210.425 59.8949C210.423 62.0771 210.418 64.2592 210.409 66.4414C210.394 72.1088 210.417 77.7753 210.452 83.4427C210.503 92.5607 210.501 101.679 210.486 110.797C210.487 113.959 210.51 117.121 210.534 120.284C210.538 122.224 210.541 124.164 210.543 126.104C210.562 127.405 210.562 127.405 210.581 128.733C210.555 137.295 208.2 143.424 201.972 149.593C200.984 150.612 199.997 151.632 199.011 152.652C198.533 153.139 198.055 153.627 197.562 154.129C195.188 156.577 192.941 159.127 190.733 161.722C189.222 163.402 189.222 163.402 187.616 164.712C185.837 166.138 185.837 166.138 184.222 169.32C184.388 172.692 184.973 175.889 185.589 179.21C188.628 196.353 185.828 214.818 176.222 229.486C171.961 234.645 168.533 237.845 162.222 240.335V257.103C163.872 257.428 165.522 257.754 167.222 258.089C168.212 258.74 169.202 259.391 170.222 260.062C171.214 259.262 172.207 258.462 173.229 257.638C180.136 252.082 187.055 246.541 194.034 241.075C194.614 240.616 195.193 240.157 195.791 239.685C198.269 237.754 200.198 236.398 203.222 235.404C203.974 233.461 204.617 231.478 205.222 229.486C206.477 226.314 207.825 223.181 209.159 220.042C209.552 219.114 209.944 218.185 210.349 217.229C211.637 214.183 212.929 211.139 214.222 208.095C216.034 203.823 217.847 199.552 219.659 195.28C220.12 194.194 220.581 193.108 221.057 191.988C223.777 185.574 226.474 179.151 229.147 172.718C230.778 168.795 232.416 164.876 234.056 160.957C234.831 159.099 235.601 157.24 236.368 155.379C237.433 152.792 238.513 150.211 239.597 147.632C239.906 146.87 240.216 146.107 240.535 145.322C242.156 141.504 243.403 138.711 247.222 136.771C251.137 136.288 253.303 136.19 256.659 138.312C258.836 141.661 258.543 143.658 258.222 147.62C257.308 150.702 256.055 153.609 254.769 156.555C254.401 157.425 254.034 158.294 253.655 159.19C252.439 162.058 251.206 164.918 249.972 167.778C249.115 169.783 248.259 171.788 247.404 173.794C246.064 176.937 244.723 180.079 243.377 183.219C240.116 190.841 236.952 198.497 233.823 206.172C232.508 209.374 231.19 212.575 229.871 215.775C229.029 217.829 228.194 219.885 227.366 221.945C221.003 237.746 214.594 247.182 200.896 257.769C197.493 260.424 194.145 263.149 190.784 265.856C189.432 266.944 188.079 268.031 186.726 269.116C186.113 269.611 185.501 270.107 184.871 270.618C183.222 271.898 183.222 271.898 180.811 273.385C178.472 275.55 178.497 277.715 178.222 280.775C179.415 281.047 179.415 281.047 180.632 281.326C189.88 283.521 199.046 285.995 208.191 288.571C209.578 288.96 210.966 289.346 212.354 289.73C231.344 294.98 231.344 294.98 236.222 303.46C237.636 306.382 238.872 309.366 240.101 312.368C240.466 313.244 240.831 314.121 241.207 315.024C242.406 317.907 243.595 320.793 244.784 323.68C246.044 326.724 247.306 329.768 248.568 332.812C249.443 334.92 250.316 337.029 251.189 339.138C254.31 346.673 257.491 354.181 260.698 361.681C262.011 364.765 263.323 367.849 264.635 370.934C265.481 372.917 266.331 374.898 267.185 376.878C268.379 379.647 269.558 382.422 270.733 385.198C271.089 386.011 271.444 386.824 271.81 387.661C273.756 392.305 274.753 395.987 274.222 401.107C272.659 403.511 272.659 403.511 270.222 405.052C266.784 405.607 266.784 405.607 263.222 405.052C258.579 401.335 256.673 397.37 254.542 392.041C254.212 391.246 253.882 390.451 253.543 389.632C252.466 387.03 251.406 384.421 250.347 381.812C249.6 379.999 248.851 378.186 248.102 376.375C246.562 372.652 245.028 368.927 243.498 365.2C240.363 357.58 237.149 349.992 233.932 342.405C232.997 340.2 232.065 337.995 231.132 335.789C230.695 334.756 230.695 334.756 230.25 333.701C229.689 332.373 229.128 331.044 228.568 329.716C227.292 326.689 226.003 323.67 224.692 320.658C224.233 319.597 223.773 318.536 223.3 317.442C222.897 316.522 222.493 315.602 222.078 314.654C221.222 312.337 221.222 312.337 221.222 309.378C220.391 309.185 219.561 308.992 218.706 308.793C204.762 305.455 191.001 301.479 177.222 297.542C177.741 298.567 178.261 299.592 178.796 300.648C179.131 301.309 179.466 301.971 179.811 302.653C180.548 304.105 181.289 305.556 182.033 307.005C183.599 310.064 185.125 313.098 186.479 316.255C189.167 322.45 192.844 325.745 198.249 329.806C202.26 332.853 205.923 336.222 209.644 339.604C211.946 341.679 214.288 343.69 216.659 345.687C221.986 350.286 225.841 354.589 226.384 361.854C226.43 364.496 226.408 367.13 226.366 369.771C226.35 371.851 226.334 373.931 226.319 376.011C226.307 377.11 226.294 378.209 226.282 379.341C226.225 385.213 226.226 391.086 226.216 396.959C226.198 404.409 226.165 411.857 226.074 419.306C226.003 425.344 225.986 431.381 226.004 437.419C226.001 439.699 225.978 441.979 225.935 444.259C225.614 461.701 229.612 473.75 238.222 488.89C243.124 497.901 243.124 497.901 242.222 503.685C240.722 506.089 240.722 506.089 238.222 507.63C235.417 508.231 232.974 508.484 230.222 507.63C227.184 504.266 225.079 500.806 223.058 496.781C222.493 495.662 221.928 494.543 221.347 493.39C220.769 492.23 220.192 491.071 219.597 489.876C219.011 488.717 218.426 487.557 217.823 486.362C212.525 475.815 210.065 467.918 210.112 456.135C210.111 454.064 210.11 451.992 210.11 449.921C210.111 448.828 210.113 447.736 210.114 446.61C210.118 440.809 210.092 435.008 210.071 429.207C210.047 421.833 210.031 414.458 210.047 407.083C210.058 401.116 210.041 395.149 210.004 389.182C209.996 386.911 209.998 384.64 210.011 382.369C210.028 379.191 210.007 376.015 209.979 372.837C209.993 371.902 210.006 370.968 210.021 370.006C209.921 364.291 208.87 361.237 204.788 357.122C202.668 355.245 200.518 353.455 198.222 351.79C198.307 352.331 198.393 352.872 198.481 353.429C198.877 355.944 199.268 358.46 199.659 360.975C199.794 361.825 199.929 362.675 200.067 363.551C203.377 384.969 204.188 407.508 199.222 428.724C199.055 429.436 198.889 430.148 198.718 430.881C195.127 445.574 188.728 459.233 179.222 471.136C178.653 471.881 178.085 472.626 177.499 473.394C170.274 482.199 158.814 490.393 147.222 491.849C130.215 493.26 117.529 489.722 104.222 479.027C84.4917 461.004 75.4693 432.767 74.0486 406.828C73.4844 390.555 74.7271 374.767 77.2215 358.695C77.4225 357.324 77.622 355.954 77.8191 354.584C77.9519 353.662 78.0847 352.74 78.2215 351.79C76.5723 353.225 74.9272 354.664 73.284 356.105C72.3674 356.906 71.4509 357.707 70.5066 358.533C67.7926 361.052 67.7926 361.052 67.0884 364.478C67.0826 365.605 67.0826 365.605 67.0767 366.756C67.0698 367.618 67.0629 368.481 67.0558 369.37C67.0532 370.319 67.0506 371.268 67.0479 372.245C67.0378 373.742 67.0378 373.742 67.0276 375.269C67.0135 377.442 67.0016 379.614 66.9917 381.787C66.9753 385.228 66.952 388.669 66.9268 392.11C66.8559 401.897 66.796 411.683 66.7446 421.47C66.7128 427.452 66.6715 433.434 66.6244 439.415C66.6085 441.694 66.5961 443.972 66.5875 446.251C66.5753 449.445 66.5512 452.639 66.5244 455.833C66.5238 456.77 66.5233 457.707 66.5226 458.672C66.4392 466.227 65.1658 472.651 61.7957 479.516C61.0947 480.953 61.0947 480.953 60.3797 482.419C59.8943 483.395 59.409 484.371 58.9089 485.376C58.4352 486.348 57.9615 487.32 57.4734 488.322C49.6521 504.246 49.6521 504.246 46.2214 507.63C39.2941 508.291 39.2941 508.291 35.7214 506.089C33.6571 502.78 33.928 500.634 34.2214 496.781C35.4907 493.508 35.4907 493.508 37.2488 490.169C37.5572 489.573 37.8655 488.977 38.1833 488.362C39.162 486.476 40.1597 484.601 41.1589 482.725C42.1503 480.834 43.1378 478.94 44.1239 477.046C45.017 475.336 45.9196 473.63 46.8228 471.925C48.6116 468.393 49.3464 465.763 49.3528 461.864C49.3568 460.977 49.3608 460.089 49.3649 459.175C49.3641 457.717 49.3641 457.717 49.3633 456.231C49.3668 455.206 49.3702 454.18 49.3738 453.124C49.3812 450.895 49.3865 448.665 49.3901 446.435C49.3973 442.902 49.4129 439.37 49.4315 435.837C49.4839 425.791 49.5319 415.746 49.5474 405.7C49.5575 399.557 49.5869 393.414 49.6287 387.271C49.641 384.933 49.6461 382.595 49.6439 380.257C49.6415 376.978 49.6638 373.699 49.6914 370.42C49.6815 368.981 49.6815 368.981 49.6714 367.513C49.7717 360.242 51.483 354.365 55.9754 348.523C56.5722 347.974 57.169 347.425 57.7839 346.859C58.48 346.215 59.1761 345.572 59.8933 344.909C63.3085 341.981 66.8119 339.17 70.3386 336.375C75.1308 332.487 79.697 328.361 84.2215 324.173C84.8905 323.62 85.5595 323.067 86.2488 322.497C89.2695 319.022 90.9433 315.006 92.8465 310.858C93.6301 309.183 94.414 307.508 95.198 305.834C95.5391 305.094 95.8803 304.355 96.2317 303.593C97.1897 301.555 98.1988 299.549 99.2215 297.542C93.317 298.996 87.4298 300.502 81.5518 302.057C79.5526 302.578 77.5496 303.085 75.543 303.577C64.5299 305.883 64.5299 305.883 55.044 311.348C53.6819 313.939 52.9874 316.42 52.2214 319.241C51.4046 321.279 50.5243 323.283 49.6406 325.293C48.6158 327.631 47.6287 329.982 46.6499 332.339C45.2101 335.802 43.7655 339.264 42.3145 342.723C38.6896 351.367 35.0802 360.018 31.4883 368.675C29.8633 372.585 28.2287 376.491 26.5921 380.396C25.8057 382.279 25.0237 384.164 24.246 386.051C23.1587 388.688 22.057 391.318 20.9519 393.948C20.6328 394.732 20.3137 395.516 19.9848 396.324C17.1058 403.101 17.1058 403.101 13.2215 405.052C9.30565 405.535 7.13995 405.633 3.78393 403.511C1.60747 400.162 1.89968 398.165 2.22143 394.202C3.13553 391.121 4.38824 388.214 5.67456 385.268C6.04228 384.398 6.41 383.528 6.78886 382.632C8.00461 379.765 9.23773 376.905 10.4715 374.044C11.3249 372.043 12.1771 370.042 13.0283 368.04C14.364 364.901 15.7013 361.762 17.0437 358.626C20.3387 350.927 23.5787 343.208 26.7957 335.477C28.1454 332.244 29.4961 329.01 30.8471 325.777C31.7186 323.688 32.5879 321.597 33.4547 319.506C34.67 316.578 35.8957 313.654 37.1238 310.731C37.4804 309.864 37.8369 308.998 38.2043 308.106C40.806 301.954 42.9955 297.403 49.3467 294.461C54.2059 292.511 59.169 291.027 64.2175 289.636C65.1323 289.379 66.0471 289.122 66.9895 288.857C68.9038 288.32 70.8189 287.787 72.7349 287.256C75.6772 286.441 78.6165 285.616 81.5554 284.789C83.4218 284.267 85.2883 283.746 87.155 283.225C88.0352 282.979 88.9153 282.732 89.8221 282.478C90.6338 282.254 91.4455 282.03 92.2818 281.799C93.3536 281.501 93.3536 281.501 94.447 281.197C96.2215 280.775 96.2215 280.775 98.2215 280.775C97.0426 274.164 94.3067 271.651 88.9715 267.706C88.26 267.158 87.5485 266.609 86.8154 266.045C84.629 264.364 82.4267 262.705 80.2215 261.048C62.3959 247.476 55.0865 235.844 46.5964 215.43C45.4829 212.76 44.3687 210.089 43.2543 207.419C42.4733 205.547 41.6927 203.675 40.9126 201.803C38.3795 195.734 35.8145 189.678 33.2271 183.631C31.4596 179.498 29.7015 175.362 27.9442 171.225C27.091 169.224 26.2335 167.224 25.3718 165.225C24.1631 162.421 22.97 159.61 21.78 156.798C21.4184 155.969 21.0567 155.141 20.6841 154.287C18.721 149.6 17.6753 145.884 18.2215 140.716C19.784 138.312 19.784 138.312 22.2215 136.771C25.659 136.216 25.659 136.216 29.2215 136.771C33.7318 140.413 35.6535 144.168 37.7254 149.366C38.0416 150.128 38.3579 150.891 38.6837 151.677C39.7287 154.204 40.7561 156.738 41.7839 159.271C42.5157 161.049 43.2489 162.826 43.9834 164.603C45.1511 167.428 46.3177 170.253 47.4798 173.081C50.5117 180.453 53.5999 187.802 56.7136 195.141C57.3962 196.751 57.3962 196.751 58.0926 198.393C59.8915 202.632 61.6916 206.871 63.4927 211.11C64.7468 214.064 65.9981 217.018 67.2488 219.973C67.622 220.85 67.9952 221.726 68.3797 222.63C68.7258 223.448 69.0718 224.266 69.4282 225.109C69.7485 225.867 70.0687 226.624 70.3987 227.404C71.2215 229.486 71.2215 229.486 72.2197 232.916C72.9781 235.51 72.9781 235.51 75.1319 236.594C75.8214 236.852 76.511 237.11 77.2215 237.376C78.3926 238.225 79.5369 239.111 80.655 240.027C81.2983 240.549 81.9415 241.072 82.6043 241.61C83.2823 242.166 83.9604 242.721 84.659 243.294C91.7343 249.035 98.9227 254.601 106.222 260.062C106.985 259.574 107.748 259.085 108.534 258.582C111.222 257.103 111.222 257.103 114.222 257.103V240.335C112.572 239.684 110.922 239.033 109.222 238.363C97.9737 229.973 92.5931 217.379 90.6511 203.984C89.5191 194.388 89.643 185.321 91.909 175.916C92.6613 171.489 92.6261 169.947 90.1511 166.11C87.4058 162.986 84.3265 160.255 81.2215 157.484C79.9252 156.109 78.6498 154.715 77.409 153.292C76.8727 152.679 76.3365 152.066 75.784 151.435C68.7568 143.152 65.9034 137.242 66.0137 126.328C66.0155 124.924 66.0155 124.924 66.0173 123.491C66.0205 121.462 66.0278 119.432 66.0388 117.403C66.0537 114.169 66.052 110.935 66.0451 107.7C66.0264 98.5045 66.0193 89.3091 66.0669 80.1134C66.0949 74.4784 66.0879 68.8443 66.0599 63.2093C66.0557 61.0835 66.0638 58.9576 66.0856 56.832C66.2218 42.9761 64.379 31.3799 59.7234 18.2797C58.3084 14.1399 57.7669 10.9257 58.2214 6.57539C60.8107 2.4253 63.624 2.16033 68.2215 2.00977ZM114.222 163.402C106.095 174.415 104.916 187.694 106.222 200.882C108.074 210.738 112.031 219.452 119.972 225.91C126.478 230.319 134.355 232.516 142.222 231.458C151.28 229.74 157.984 225.949 163.472 218.574C170.803 206.68 172.224 192.719 169.526 179.202C166.746 168.452 161.238 160.241 151.491 154.49C138.053 148.414 123.674 153.099 114.222 163.402ZM130.222 246.253V255.13H146.222V246.253H130.222ZM116.222 272.884C113.876 276.354 113.642 277.675 114.222 281.761C117.514 286.265 121.099 287.592 126.331 288.985C128.222 289.652 128.222 289.652 129.222 291.624C129.598 295.042 129.607 296.914 127.784 299.885C124.817 301.741 124.189 301.496 120.847 301.118C118.482 300.87 118.482 300.87 116.222 301.488C113.319 304.683 110.222 308.895 110.222 313.323C112.262 313.965 114.304 314.601 116.347 315.234C117.484 315.589 118.621 315.944 119.792 316.309C135.53 320.712 151.018 318.322 166.222 313.323C164.901 308.764 163.521 304.992 160.222 301.488C157.878 301.232 155.7 301.366 153.351 301.518C151.222 301.488 151.222 301.488 148.659 299.885C146.818 296.884 146.775 295.079 147.222 291.624C149.456 288.318 149.926 288.216 153.597 287.247C157.398 286.076 159.952 285.168 162.222 281.761C162.888 278.802 162.888 278.802 162.222 275.843C160.355 273.572 158.865 272.215 156.222 270.911C153.57 270.802 150.945 270.75 148.292 270.746C147.505 270.742 146.718 270.739 145.908 270.736C144.242 270.731 142.576 270.728 140.91 270.729C138.364 270.726 135.818 270.709 133.272 270.69C131.654 270.687 130.035 270.685 128.417 270.684C127.656 270.677 126.896 270.67 126.112 270.663C120.841 270.668 120.841 270.668 116.222 272.884ZM103.222 327.132C102.423 329.246 101.633 331.363 100.847 333.482C100.406 334.66 99.9647 335.839 99.5105 337.053C98.5142 339.88 97.782 342.697 97.1409 345.622C96.9669 346.411 96.7929 347.2 96.6136 348.012C96.4842 348.608 96.3548 349.204 96.2215 349.818C98.1894 349.855 98.1894 349.855 100.197 349.892C105.065 349.985 109.933 350.084 114.801 350.185C116.907 350.228 119.014 350.269 121.121 350.308C124.149 350.365 127.178 350.428 130.206 350.492C131.148 350.508 132.09 350.525 133.06 350.542C133.941 350.561 134.821 350.581 135.728 350.601C136.501 350.617 137.274 350.632 138.07 350.648C140.224 350.804 142.147 351.21 144.222 351.79C144.499 353.183 144.743 354.581 144.972 355.982C145.111 356.76 145.25 357.538 145.394 358.34C145.222 360.667 145.222 360.667 143.889 362.75C139.672 365.695 135.412 365.188 130.366 365.179C129.309 365.193 128.251 365.207 127.162 365.221C123.786 365.263 120.41 365.278 117.034 365.291C113.647 365.319 110.261 365.353 106.874 365.392C104.766 365.414 102.659 365.43 100.551 365.438C99.1285 365.448 99.1285 365.448 97.6778 365.459C96.4201 365.464 96.4201 365.464 95.1371 365.469C93.2126 365.392 93.2126 365.392 92.2215 366.585C91.8915 371.468 91.5615 376.35 91.2215 381.38H185.222C185.943 372.719 185.943 372.719 183.222 365.599C179.884 365.431 176.553 365.306 173.212 365.262C169.755 365.128 167.569 364.849 164.694 362.89C162.168 359.077 163.443 356.144 164.222 351.79C169.502 351.139 174.782 350.488 180.222 349.818C179.624 347.356 179.025 344.895 178.409 342.359C178.228 341.597 178.046 340.836 177.859 340.052C176.728 335.501 175.202 331.392 173.222 327.132C172.003 327.477 170.785 327.821 169.53 328.176C167.907 328.63 166.283 329.083 164.659 329.536C163.859 329.763 163.059 329.99 162.235 330.224C142.435 335.724 122.534 333.452 103.222 327.132ZM90.2215 397.161C89.7364 407.761 89.7364 407.761 91.2215 412.943H185.222C186.707 407.761 186.707 407.761 186.222 397.161H90.2215ZM94.2215 428.724C96.7519 438.687 96.7519 438.687 99.2215 444.505H177.222C180.661 436.775 180.661 436.775 182.222 428.724H94.2215ZM110.222 460.286C114.808 466.793 114.808 466.793 120.722 470.951C122.098 471.784 122.098 471.784 123.503 472.635C130.713 476.507 137.064 477.041 145.222 476.068C154.295 472.967 161.277 468.415 166.222 460.286H110.222Z" fill="#45A7D0"/>
</svg>
